<svg width="20" height="20" viewBox="0 0 48 48" xmlns="http://www.w3.org/2000/svg">
  <g>
    <path fill="#4285F4" d="M43.611 20.083h-1.819V20H24v8h11.293C33.98 32.208 29.368 35 24 35c-6.065 0-11-4.935-11-11s4.935-11 11-11c2.644 0 5.067.934 6.987 2.48l6.453-6.453C34.579 6.372 29.571 4 24 4 12.954 4 4 12.954 4 24s8.954 20 20 20c11.045 0 19.736-8.026 19.736-20 0-1.341-.138-2.646-.377-3.917z"/>
    <path fill="#34A853" d="M6.306 14.691l6.572 4.823C14.655 16.004 19.01 13 24 13c2.644 0 5.067.934 6.987 2.48l6.453-6.453C34.579 6.372 29.571 4 24 4c-7.175 0-13.39 4.106-16.694 10.691z"/>
    <path fill="#FBBC05" d="M24 44c5.329 0 10.083-1.805 13.81-4.899l-6.377-5.226C29.163 35.417 26.715 36 24 36c-5.348 0-9.89-3.618-11.505-8.447l-6.608 5.103C7.992 39.991 15.514 44 24 44z"/>
    <path fill="#EA4335" d="M43.611 20.083h-1.819V20H24v8h11.293C34.565 32.725 29.888 36 24 36c-5.388 0-9.94-3.657-11.505-8.447l-6.608 5.103C7.992 39.991 15.514 44 24 44c8.486 0 16.008-4.009 20.113-10.145z"/>
    <path fill="none" d="M0 0h48v48H0z"/>
  </g>
</svg>
